<svg id="Layer_1" data-name="Layer 1" xmlns="http://www.w3.org/2000/svg" viewBox="0 0 100 100"><defs><style>.cls-1{fill:none;stroke:#000;stroke-linecap:round;stroke-linejoin:round;stroke-width:6px;}.cls-2{font-size:72px;font-family:ArialRoundedMTBold, Arial Rounded MT Bold;}</style></defs><title>Artboard 10</title><polygon class="cls-1" points="82 88 20 88 30 53 72 53 82 88"/><line class="cls-1" x1="51" y1="53" x2="51" y2="40"/><path d="M47.55,70.54a4.29,4.29,0,0,1-.37,1.63A5.84,5.84,0,0,1,46,73.89a6,6,0,0,1-2,1.37,7.29,7.29,0,0,1-2.88.53,9.86,9.86,0,0,1-2.26-.24A6.62,6.62,0,0,1,37,74.82a6.72,6.72,0,0,1-1.53-1.32,8.09,8.09,0,0,1-1.06-1.66,8.53,8.53,0,0,1-.66-2,10.48,10.48,0,0,1-.22-2.21,9.8,9.8,0,0,1,.55-3.41,7.25,7.25,0,0,1,1.59-2.57,6.86,6.86,0,0,1,2.41-1.63,7.91,7.91,0,0,1,3-.56,7.46,7.46,0,0,1,3.4.76,6.14,6.14,0,0,1,2.29,1.89,3.73,3.73,0,0,1,.79,2.12,1.37,1.37,0,0,1-.38,1,1.23,1.23,0,0,1-.94.42,1.29,1.29,0,0,1-.91-.29,4,4,0,0,1-.69-1,4.71,4.71,0,0,0-1.46-1.75A3.59,3.59,0,0,0,41,62a3.77,3.77,0,0,0-3.13,1.49,6.75,6.75,0,0,0-1.17,4.24,7.75,7.75,0,0,0,.52,3.06,3.84,3.84,0,0,0,1.46,1.82,4,4,0,0,0,2.21.6,3.94,3.94,0,0,0,2.33-.68,4.1,4.1,0,0,0,1.43-2,3.47,3.47,0,0,1,.51-1,1.13,1.13,0,0,1,1-.39,1.34,1.34,0,0,1,1,.4A1.31,1.31,0,0,1,47.55,70.54Z"/><path d="M57.34,59.5a8.33,8.33,0,0,1,4.21,1,6.42,6.42,0,0,1,2.66,2.82,9.66,9.66,0,0,1,.9,4.3,10.48,10.48,0,0,1-.49,3.32,7.15,7.15,0,0,1-1.49,2.59,6.43,6.43,0,0,1-2.42,1.68,8.91,8.91,0,0,1-3.3.58,8.64,8.64,0,0,1-3.31-.6,6.65,6.65,0,0,1-2.44-1.68,7.1,7.1,0,0,1-1.47-2.61,10.37,10.37,0,0,1-.5-3.3,10.11,10.11,0,0,1,.52-3.33,7,7,0,0,1,1.51-2.58,6.46,6.46,0,0,1,2.4-1.62A8.6,8.6,0,0,1,57.34,59.5Zm4.54,8.1a7.47,7.47,0,0,0-.56-3,4.1,4.1,0,0,0-1.6-1.91,4.6,4.6,0,0,0-4.14-.29,4,4,0,0,0-1.4,1,5,5,0,0,0-.92,1.76,7.77,7.77,0,0,0-.34,2.4A8,8,0,0,0,53.26,70a5,5,0,0,0,1,1.8,4.16,4.16,0,0,0,1.42,1.07,4.42,4.42,0,0,0,1.76.35,4.32,4.32,0,0,0,2.25-.61,4.24,4.24,0,0,0,1.63-1.89A7.22,7.22,0,0,0,61.88,67.6Z"/><path d="M69,81.37h3.27a1.16,1.16,0,0,1,.75.2.64.64,0,0,1,.25.54.69.69,0,0,1-.2.52.82.82,0,0,1-.62.21H67.82a1,1,0,0,1-.73-.26.83.83,0,0,1-.26-.61,1.38,1.38,0,0,1,.17-.59,1.93,1.93,0,0,1,.37-.59c.55-.58,1-1.07,1.5-1.48a10.78,10.78,0,0,1,1-.81,5.35,5.35,0,0,0,.85-.73A3.08,3.08,0,0,0,71.2,77a1.8,1.8,0,0,0,.18-.76,1.36,1.36,0,0,0-.71-1.21,1.59,1.59,0,0,0-.72-.17,1.48,1.48,0,0,0-1.29.72,3.25,3.25,0,0,0-.21.51,1.87,1.87,0,0,1-.33.65.65.65,0,0,1-.54.22.73.73,0,0,1-.52-.2.77.77,0,0,1-.21-.57,2.33,2.33,0,0,1,.2-.9,2.53,2.53,0,0,1,.58-.85,2.79,2.79,0,0,1,1-.62A3.93,3.93,0,0,1,70,73.61a4.07,4.07,0,0,1,1.64.3,2.59,2.59,0,0,1,.77.55,2.66,2.66,0,0,1,.7,1.76,2.68,2.68,0,0,1-.39,1.42,4.43,4.43,0,0,1-.78,1c-.27.24-.72.62-1.35,1.13A11.11,11.11,0,0,0,69.29,81,4,4,0,0,0,69,81.37Z"/><text class="cls-2" transform="translate(28.9 36.33) scale(0.58)">@</text></svg>