<svg id="Layer_1" data-name="Layer 1" xmlns="http://www.w3.org/2000/svg" viewBox="0 0 100 100"><defs><style>.cls-1,.cls-2,.cls-3{fill:none;stroke:#000;stroke-linecap:round;}.cls-1,.cls-3{stroke-miterlimit:10;}.cls-1{stroke-width:6px;}.cls-2{stroke-linejoin:round;}.cls-2,.cls-3{stroke-width:3px;}</style></defs><title>Artboard 6</title><path class="cls-1" d="M21.5,68.5H18.74a5.23,5.23,0,0,1-5.24-5.24V53.74a5.23,5.23,0,0,1,5.24-5.24h2.45a5.23,5.23,0,0,0,4.73-3l7.16-15a5.23,5.23,0,0,1,4.73-3h24.3a5.25,5.25,0,0,1,4.78,3.09l6.22,13.82a5.25,5.25,0,0,0,4.78,3.09h6.37a5.23,5.23,0,0,1,5.24,5.24V63.26a5.23,5.23,0,0,1-5.24,5.24H80.5"/><polyline class="cls-2" points="81.5 47.5 51 47.5 51 33 67 33"/><polygon class="cls-2" points="30.5 48 45.5 48 45.5 32.5 38.5 32.5 30.5 48"/><circle class="cls-3" cx="33.5" cy="68.5" r="7"/><circle class="cls-3" cx="68.5" cy="68.5" r="7"/><line class="cls-1" x1="46" y1="68.5" x2="56" y2="68.5"/></svg>