<?xml version="1.0" encoding="UTF-8" standalone="no"?>
<!-- Created with Inkscape (http://www.inkscape.org/) -->
<svg xmlns:rdf="http://www.w3.org/1999/02/22-rdf-syntax-ns#" xmlns="http://www.w3.org/2000/svg" xmlns:cc="http://web.resource.org/cc/" xmlns:dc="http://purl.org/dc/elements/1.1/" xmlns:svg="http://www.w3.org/2000/svg" xmlns:inkscape="http://www.inkscape.org/namespaces/inkscape" xmlns:sodipodi="http://sodipodi.sourceforge.net/DTD/sodipodi-0.dtd" xmlns:ns1="http://sozi.baierouge.fr" xmlns:xlink="http://www.w3.org/1999/xlink" id="svg2" xml:space="preserve" version="1.0" viewBox="0 0 166.556 145.169" inkscape:version="0.91 r13725">
<g id="smoke">
	<g id="g6">
		<rect id="rect8" transform="matrix(.7043 -.7099 .7099 .7043 -15.17 91.918)" height="26" width="154.98" y="51.168" x="25.259"/>
		<rect id="rect10" transform="matrix(.7043 -.7099 .7099 .7043 -76.503 66.606)" height="26" width="5.76" y="112.14" x="38.822"/>
		<rect id="rect12" transform="matrix(.7044 -.7098 .7098 .7044 -85.23 63.288)" height="25.999" width="5.759" y="120.97" x="30.488"/>
		<path id="path14" d="m30.568 110.31l-4.333 3.67s-15.5-8.12-13.667-24.166c1.333-11.666 13.667-14.833 14.833-34.833 1.02-17.499-20.333-28.334-20.333-28.334l2.333-4.833s18.58 7.818 22 26.833c4.167 23.167-14.167 29.667-13.667 43.333 0.5 13.67 12.834 18.33 12.834 18.33z"/>
		<path id="path16" d="m20.901 119.31l-3.5 3.84s-18.666-12-17.333-32.502c1.333-20.5 13.667-21.666 14-35.333 0.333-13.668-12.167-17.334-12.167-17.334l2.5-4.5s15.5 5.333 15 21.667-12.333 15.833-14 35.333c-1.667 19.499 15.5 28.829 15.5 28.829z"/>
		<path id="path18" d="m38.901 60.481l5.333-5s0.625-18.333-12.125-32.833c-11.151-12.681-28.875-17-28.875-17l-1.833 5s12.015 1.135 25.333 14.167c15.5 15.166 12.167 35.666 12.167 35.666z"/>
	</g>
</g>
<metadata><rdf:RDF><cc:Work><dc:format>image/svg+xml</dc:format><dc:type rdf:resource="http://purl.org/dc/dcmitype/StillImage"/><cc:license rdf:resource="http://creativecommons.org/licenses/publicdomain/"/><dc:publisher><cc:Agent rdf:about="http://openclipart.org/"><dc:title>Openclipart</dc:title></cc:Agent></dc:publisher><dc:title>Cigarette Symbol</dc:title><dc:date>2009-04-01T02:09:35</dc:date><dc:description>Cigarette symbol as used in 'No Smoking' signs</dc:description><dc:source>https://openclipart.org/detail/23552/cigarette-symbol-by-gamefreak7744</dc:source><dc:creator><cc:Agent><dc:title>GameFreak7744</dc:title></cc:Agent></dc:creator><dc:subject><rdf:Bag><rdf:li>cigarette</rdf:li><rdf:li>fag</rdf:li><rdf:li>sign</rdf:li><rdf:li>smoke</rdf:li><rdf:li>smoking</rdf:li><rdf:li>symbol</rdf:li></rdf:Bag></dc:subject></cc:Work><cc:License rdf:about="http://creativecommons.org/licenses/publicdomain/"><cc:permits rdf:resource="http://creativecommons.org/ns#Reproduction"/><cc:permits rdf:resource="http://creativecommons.org/ns#Distribution"/><cc:permits rdf:resource="http://creativecommons.org/ns#DerivativeWorks"/></cc:License></rdf:RDF></metadata></svg>